<svg width="510" height="510" fill="none" xmlns="http://www.w3.org/2000/svg"><rect x="20" y="110" width="284" height="164" rx="30" fill="url(#paint0_linear)"/><path d="M72.958 234v-53.768l-20.8 1.04v-20.904h65v20.904l-21.32-1.04v37.128l1.144 10.4-1.144 6.24h-22.88zm54.604 0l-2.08-6.24 2.08-10.4v-56.992h53.56l5.2 3.12-6.864 17.68-9.36-1.04H150.65v8.32h25.688v17.16h-14.352l-11.336-1.04v9.672h28.808l12.376 13.104-6.136 6.656h-58.136zm72.617 0v-56.576l-2.08-10.504 2.08-6.552h22.88v12.48l-1.04 16.536h3.12l15.704-29.016h24.856v6.24l-20.592 29.224 17.472 21.632 10.296 10.296V234h-27.56l-17.888-25.48-4.368 1.04v11.96l1.04 6.24-1.04 6.24h-22.88z" fill="#fff"/><path d="M155.082 372c-3.667 0-7.3-.333-10.9-1-3.533-.6-6.667-1.4-9.4-2.4-2.733-1-4.7-2-5.9-3v-20.9c2.533 1.4 5.367 2.667 8.5 3.8a69.773 69.773 0 009.5 2.7c3.267.6 6.367.9 9.3.9 4.067 0 6.1-.933 6.1-2.8 0-.933-.433-1.7-1.3-2.3-.8-.667-2.233-1.367-4.3-2.1-2.067-.733-5-1.667-8.8-2.8-4.4-1.4-8.167-2.867-11.3-4.4-3.067-1.533-5.433-3.5-7.1-5.9-1.6-2.4-2.4-5.6-2.4-9.6 0-6.933 2.767-12.5 8.3-16.7 5.533-4.2 13.633-6.3 24.3-6.3 2.133 0 4.4.1 6.8.3 2.467.133 4.433.333 5.9.6l12.3 8.3-5 15.2-25.6-6.5c-2.667 0-4 .9-4 2.7 0 1.4.833 2.567 2.5 3.5 1.733.867 4.833 2.067 9.3 3.6 5.933 2 10.633 4.067 14.1 6.2 3.533 2.067 6.067 4.433 7.6 7.1 1.533 2.667 2.3 5.833 2.3 9.5 0 6.667-2.567 12.067-7.7 16.2-5.133 4.067-12.833 6.1-23.1 6.1zm42.981-1v-54.7l-2-10.1 2-6h36c5.4 0 10.033.867 13.9 2.6 3.866 1.733 6.833 4.533 8.9 8.4 2.066 3.8 3.1 8.833 3.1 15.1 0 9.4-2.534 16.167-7.6 20.3-5 4.067-12.1 6.1-21.3 6.1h-11v2.2l1 10-1 6.1h-22zm22-37h5.8c2.333 0 4.333-.1 6-.3 1.733-.2 3.066-.8 4-1.8.933-1.067 1.4-2.767 1.4-5.1 0-2.467-.5-4.233-1.5-5.3-1-1.067-2.4-1.7-4.2-1.9-1.734-.267-3.767-.4-6.1-.4h-6.4l1 14.8zm37.894 37l4.8-16.9v-12.7l7.4-3 14-38.1h30.1l17.1 44.8 7.7 14.2V371h-21.7l-5-14.9h-27.1l-4.3 14.9h-23zm33.9-32.4h15l-6.6-19.9h-2.1l-6.3 19.9zm85.652 33.4c-4.6 0-9.066-.533-13.4-1.6-4.266-1.067-8.1-2.933-11.5-5.6-3.4-2.667-6.1-6.367-8.1-11.1s-3-10.767-3-18.1c0-6.6.967-12.2 2.9-16.8 1.934-4.667 4.567-8.433 7.9-11.3 3.334-2.867 7.167-4.967 11.5-6.3 4.334-1.333 8.9-2 13.7-2 3.4 0 6.7.267 9.9.8 3.267.533 5.634 1.133 7.1 1.8l12.1 10.1-10 16.5-19.1-8.8c-2.266 0-4.4.633-6.4 1.9-1.933 1.2-3.533 3-4.8 5.4-1.2 2.333-1.8 5.233-1.8 8.7 0 4.4.667 7.8 2 10.2 1.4 2.333 3.367 3.933 5.9 4.8 2.6.867 5.667 1.3 9.2 1.3 3.4 0 6.6-.333 9.6-1 3.067-.733 5.767-1.567 8.1-2.5 2.334-.933 4.1-1.733 5.3-2.4v20c-1.333.667-3.233 1.5-5.7 2.5-2.4.933-5.4 1.767-9 2.5-3.533.667-7.666 1-12.4 1zm40.085-1l-2-6 2-10v-54.8h51.5l5 3-6.6 17-9-1h-18.7v8h24.7v16.5h-13.8l-10.9-1v9.3h27.7l11.9 12.6-5.9 6.4h-55.9z" fill="#3D8EE1"/><defs><linearGradient id="paint0_linear" x1="31.567" y1="110" x2="421.396" y2="340.956" gradientUnits="userSpaceOnUse"><stop stop-color="#2D9CDB"/><stop offset=".648" stop-color="#5876EB"/><stop offset="1" stop-color="#8860D0"/></linearGradient></defs></svg>