<svg width="510" height="510" fill="none" xmlns="http://www.w3.org/2000/svg"><path fill-rule="evenodd" clip-rule="evenodd" d="M50 110c-16.569 0-30 13.431-30 30v104c0 16.569 13.431 30 30 30h224c16.569 0 30-13.431 30-30V140c0-16.569-13.431-30-30-30H50zm22.958 70.232V234h22.88l1.144-6.24-1.144-10.4v-37.128l21.32 1.04v-20.904h-65v20.904l20.8-1.04zm52.524 47.528l2.08 6.24h58.136l6.136-6.656-12.376-13.104H150.65v-9.672l11.336 1.04h14.352v-17.16H150.65v-8.32h19.448l9.36 1.04 6.864-17.68-5.2-3.12h-53.56v56.992l-2.08 10.4zm74.697-50.336V234h22.88l1.04-6.24-1.04-6.24v-11.96l4.368-1.04L245.315 234h27.56v-6.24l-10.296-10.296-17.472-21.632 20.592-29.224v-6.24h-24.856l-15.704 29.016h-3.12l1.04-16.536v-12.48h-22.88l-2.08 6.552 2.08 10.504z" fill="#fff"/><path d="M159.051 372c-3.667 0-7.134-.333-10.4-1-3.267-.733-6.1-1.6-8.5-2.6-2.4-1-4.167-1.933-5.3-2.8v-17.9c3.2 1.8 7.233 3.5 12.1 5.1 4.866 1.533 10.266 2.3 16.2 2.3 2.4 0 4.166-.3 5.3-.9 1.2-.667 1.8-1.8 1.8-3.4 0-1.733-1.334-3.167-4-4.3-2.6-1.2-6.734-2.667-12.4-4.4-4.4-1.4-8.167-2.933-11.3-4.6-3.067-1.733-5.434-3.867-7.1-6.4-1.6-2.6-2.4-5.9-2.4-9.9 0-4.133 1.066-7.867 3.2-11.2 2.133-3.333 5.466-5.967 10-7.9 4.533-1.933 10.333-2.9 17.4-2.9 2.133 0 4.4.1 6.8.3 2.466.133 4.433.333 5.9.6l11.3 8.3-3.9 12.2-23.7-6.5c-2.734 0-4.767.567-6.1 1.7-1.267 1.133-1.9 2.5-1.9 4.1 0 1.933 1.1 3.467 3.3 4.6 2.2 1.133 5.366 2.267 9.5 3.4 6.533 1.8 11.6 3.8 15.2 6 3.6 2.2 6.133 4.7 7.6 7.5 1.466 2.733 2.2 5.833 2.2 9.3 0 6.4-2.567 11.567-7.7 15.5-5.134 3.867-12.834 5.8-23.1 5.8zm42.82-1v-54.7l-2-10.1 2-6h32c4.867 0 9.233.767 13.1 2.3 3.933 1.467 7.033 4 9.3 7.6 2.333 3.533 3.5 8.433 3.5 14.7 0 6.267-1.233 11.233-3.7 14.9-2.467 3.6-5.9 6.167-10.3 7.7-4.333 1.533-9.3 2.3-14.9 2.3h-11v5.2l1 10-1 6.1h-18zm18-37h9.8c3.467 0 6.233-.633 8.3-1.9 2.067-1.333 3.1-3.767 3.1-7.3 0-2.467-.5-4.3-1.5-5.5-1-1.267-2.4-2.1-4.2-2.5-1.733-.4-3.767-.6-6.1-.6h-10.4l1 17.8zm41.895 37l4.8-16.9v-12.7l7.4-3 13-38.1h25.9l16.1 44.8 7.7 14.2V371h-17.7l-5-16h-29.1l-4.3 16h-18.8zm29.7-31.4h17l-7.6-22.9h-2.1l-7.3 22.9zm84.102 32.4c-4.533 0-8.933-.5-13.2-1.5a31.256 31.256 0 01-11.6-5.6c-3.4-2.667-6.1-6.367-8.1-11.1s-3-10.8-3-18.2c0-6.867 1-12.633 3-17.3 2-4.667 4.667-8.4 8-11.2 3.333-2.8 6.967-4.8 10.9-6 4-1.267 8-1.9 12-1.9 3.4 0 6.7.267 9.9.8 3.267.533 5.633 1.133 7.1 1.8l11.1 9.1-9 14.5-17.1-8.8c-4.733 0-8.733 1.567-12 4.7-3.267 3.067-4.9 7.833-4.9 14.3 0 4.6.8 8.333 2.4 11.2 1.667 2.867 3.933 4.967 6.8 6.3 2.867 1.333 6.133 2 9.8 2 3.867 0 7.167-.3 9.9-.9 2.733-.667 5.133-1.433 7.2-2.3a604.263 604.263 0 005.9-2.7V366c-2.333 1.467-5.433 2.833-9.3 4.1-3.867 1.267-9.133 1.9-15.8 1.9zm37.534-1l-2-6 2-10v-54.8h49.5l5 3-6.6 14-9-1h-20.9v11h26.9v15.5h-11.8l-15.1-1V355h29.9l11.9 9.6-5.9 6.4h-53.9z" fill="#fff"/></svg>